<svg width="64" height="59" viewBox="0 0 64 59" fill="none" xmlns="http://www.w3.org/2000/svg">
<path fill-rule="evenodd" clip-rule="evenodd" d="M35.44 6.25132L53.7067 18.0759C56.5466 19.9159 58.2378 22.9147 58.24 26.1147V43.6426C58.233 46.4266 57.0265 49.094 54.8861 51.0579C52.7457 53.0219 49.8466 54.1216 46.8267 54.1151H16.7467C13.7268 54.1216 10.8277 53.0219 8.6873 51.0579C6.54688 49.094 5.34044 46.4266 5.33337 43.6426V26.1147C5.33564 22.9147 7.02678 19.9159 9.86671 18.0759L28.1334 6.25132C30.1864 4.47177 33.387 4.47177 35.44 6.25132ZM52.0577 48.4505C53.448 47.1781 54.233 45.4486 54.24 43.6426V26.1147C54.2027 24.1539 53.1525 22.3273 51.4134 21.198L33.1467 9.3734L32.8534 9.17674C32.5725 8.91246 32.188 8.76354 31.7867 8.76354C31.3854 8.76354 31.0009 8.91246 30.72 9.17674L30.4267 9.3734L12.16 21.198C10.4209 22.3273 9.37073 24.1539 9.33337 26.1147V43.6426C9.34043 45.4486 10.1254 47.1781 11.5157 48.4505C12.906 49.7229 14.7876 50.4341 16.7467 50.4276H46.8267C48.7858 50.4341 50.6674 49.7229 52.0577 48.4505Z" fill="black"/>
<path d="M47.9734 27.0734L33.2 36.5872C32.7627 36.9904 32.1622 37.2066 31.5441 37.1833C30.9261 37.1599 30.3468 36.8992 29.9467 36.4642L15.6 27.0734C15.0237 26.6139 14.2143 26.4962 13.5126 26.7699C12.8109 27.0435 12.3387 27.6609 12.295 28.3622C12.2513 29.0634 12.6436 29.7266 13.3067 30.0726L27.44 39.3651C28.5989 40.3597 30.1233 40.913 31.7067 40.9138C33.1959 40.8791 34.6155 40.3257 35.68 39.3651L50.2667 29.9742C51.1053 29.402 51.3258 28.3317 50.7734 27.5159C50.1271 26.6891 48.8814 26.4923 47.9734 27.0734Z" fill="black"/>
</svg>
