<svg width="88" height="88" viewBox="0 0 88 88" fill="none" xmlns="http://www.w3.org/2000/svg">
<path d="M44.1873 7.33331L39.164 17.6C35.5745 24.9346 30.7637 31.6053 24.9373 37.3266L24.2773 37.95C20.5353 41.5828 18.3973 46.5583 18.3373 51.7733V52.4333C18.2382 62.6454 24.3235 71.9038 33.7373 75.8633L34.6906 76.2666C40.8648 78.8892 47.8398 78.8892 54.014 76.2666H54.234C63.7181 72.146 69.8033 62.7364 69.6707 52.3966V36.4833C66.5101 43.7012 60.7702 49.4803 53.574 52.69C53.574 52.69 53.574 52.69 53.354 52.69C53.134 52.69 50.5673 53.7533 49.4673 52.69C48.4848 51.6959 48.3907 50.1278 49.2473 49.0233L49.504 48.84H49.6873C58.1051 42.4416 60.0676 30.5863 54.1607 21.8166C49.394 14.5566 44.1873 7.33331 44.1873 7.33331Z" fill="white"/>
</svg>
