<svg width="57" height="63" viewBox="0 0 57 63" fill="none" xmlns="http://www.w3.org/2000/svg">
<path fill-rule="evenodd" clip-rule="evenodd" d="M44.7715 33.0066L56.1311 45.5022C56.8952 46.4642 57.1613 47.7878 56.8373 49.0145L54.7496 57.0184C54.428 58.2295 53.5742 59.1814 52.4776 59.5513L45.0171 62.0167C43.8281 62.3713 42.5571 62.0122 41.6706 61.0711L30.2803 48.5417C28.7322 46.8402 26.6353 45.8812 24.4469 45.8737C23.3935 45.8789 22.351 46.1083 21.3768 46.5491C20.3988 46.9721 19.3574 47.1897 18.3066 47.1908C16.1155 47.1983 14.0136 46.2369 12.4733 44.5228L3.26273 34.3912C1.17039 32.0977 0.350923 28.7496 1.11361 25.6105L4.70571 10.9873C5.4357 7.81421 7.66622 5.3219 10.539 4.4693L23.9557 0.720619C24.6576 0.519999 25.3797 0.417872 26.1048 0.416672C28.2932 0.424151 30.3901 1.38321 31.9382 3.08465L41.1487 13.2162C43.5084 15.8127 44.2223 19.7127 42.9601 23.1114C41.6978 26.5102 42.4118 30.4101 44.7715 33.0066ZM44.5259 57.0522L50.6662 55.0597L52.3548 48.4404L41.5171 36.5189C37.8289 32.4861 36.7248 26.3999 38.7233 21.1189C39.2507 19.5971 38.9138 17.8765 37.8636 16.7285L28.6531 6.59694C27.9757 5.83298 27.0443 5.40609 26.0741 5.41492C25.7586 5.36361 25.4379 5.36361 25.1224 5.41492L11.7364 9.36623C10.4785 9.73849 9.49589 10.8193 9.15748 12.2031L5.56537 27.0627C5.22846 28.4514 5.59136 29.9323 6.51712 30.9465L15.7277 41.0781C16.4051 41.842 17.3365 42.2689 18.3066 42.2601C18.7776 42.2551 19.2445 42.1638 19.6882 41.9899C21.2049 41.2918 22.8335 40.9358 24.4777 40.943C27.9322 40.9004 31.2551 42.399 33.6882 45.0969L44.5259 57.0522Z" fill="black"/>
<path d="M25.0303 16.357L15.5127 26.8263C14.6149 27.8152 14.6149 29.4172 15.5127 30.4061C16.4117 31.3938 17.8681 31.3938 18.7671 30.4061L28.2847 19.9368C28.7235 19.4664 28.9711 18.821 28.9711 18.1469C28.9711 17.4729 28.7235 16.8274 28.2847 16.357C27.3857 15.3694 25.9293 15.3694 25.0303 16.357Z" fill="black"/>
</svg>
